<?xml version="1.0" standalone="no"?>
<!DOCTYPE svg PUBLIC "-//W3C//DTD SVG 20010904//EN"
 "http://www.w3.org/TR/2001/REC-SVG-20010904/DTD/svg10.dtd">
<svg version="1.0" xmlns="http://www.w3.org/2000/svg"
 width="3126.000000pt" height="3126.000000pt" viewBox="0 0 3126.000000 3126.000000"
 preserveAspectRatio="xMidYMid meet">
<metadata>
Created by potrace 1.11, written by Peter Selinger 2001-2013
</metadata>
<g transform="translate(0.000000,3126.000000) scale(0.100000,-0.100000)"
fill="#000000" stroke="none">
<path d="M15220 30549 c-1432 -42 -2819 -287 -4120 -728 -396 -133 -499 -172
-850 -315 -382 -155 -904 -394 -1170 -535 -91 -49 -219 -116 -285 -151 -222
-117 -773 -449 -1067 -644 -1423 -942 -2679 -2136 -3719 -3536 -578 -777
-1022 -1508 -1460 -2405 -734 -1503 -1221 -3109 -1443 -4760 -70 -522 -107
-928 -138 -1515 -13 -260 -14 -1341 -1 -1455 5 -41 8 196 8 575 1 628 10 928
40 1370 67 957 220 1877 459 2746 100 366 274 905 283 878 2 -6 -15 -96 -37
-199 -22 -104 -38 -190 -36 -192 5 -5 24 45 131 342 135 375 286 766 404 1041
161 380 221 499 115 231 -24 -60 -40 -115 -37 -120 4 -6 1 -7 -7 -2 -10 6 -12
3 -8 -13 4 -14 2 -20 -5 -15 -7 4 -8 0 -4 -11 5 -11 3 -15 -5 -10 -7 5 -9 2
-5 -9 3 -8 -23 -91 -57 -184 -407 -1081 -704 -2266 -851 -3393 -73 -561 -118
-1431 -95 -1840 15 -267 30 -380 50 -380 33 0 51 138 90 685 66 929 154 1649
276 2270 256 1301 602 2378 1111 3463 47 100 88 181 90 179 2 -2 -50 -134
-116 -293 -297 -718 -569 -1538 -745 -2244 -244 -974 -375 -1803 -438 -2774
-17 -257 -17 -1307 0 -1557 17 -237 34 -324 27 -134 -5 121 11 573 35 990 5
99 17 304 25 455 70 1261 262 2302 675 3670 248 818 543 1528 873 2100 107
185 136 239 315 590 160 313 194 372 367 630 149 223 823 1166 867 1215 6 6 6
2 2 -10 -10 -28 1 -16 83 95 39 52 138 174 220 270 81 96 186 222 232 280 68
86 92 108 127 122 35 13 103 75 332 305 306 308 556 541 847 791 1552 1331
3299 2262 5275 2811 586 162 1261 306 1718 366 184 24 293 43 490 86 242 52
383 60 1062 61 492 1 639 -4 1135 -37 121 -8 360 -22 530 -31 291 -14 321 -18
490 -54 99 -21 299 -60 445 -85 450 -78 654 -121 1075 -226 541 -135 1238
-368 1935 -647 442 -177 1114 -517 1635 -828 765 -455 1628 -1090 2245 -1650
142 -130 560 -547 695 -694 38 -41 65 -66 60 -55 -4 11 -10 33 -13 50 l-5 30
39 -34 c93 -81 149 -138 222 -229 83 -103 393 -508 502 -656 36 -48 151 -204
255 -345 303 -407 442 -611 703 -1028 292 -465 676 -1185 867 -1623 117 -269
128 -288 137 -242 7 34 202 -493 318 -858 383 -1210 579 -2093 690 -3110 11
-102 22 -196 25 -210 3 -14 21 -157 40 -319 33 -279 45 -502 25 -456 -14 31
-67 391 -85 570 -8 88 -19 198 -25 245 -5 47 -21 182 -35 300 -26 218 -96 661
-102 643 -2 -6 5 -64 16 -129 112 -663 181 -1538 181 -2284 0 -795 -76 -1669
-210 -2432 -17 -92 -30 -173 -29 -180 0 -7 20 64 44 157 23 94 43 164 44 157
1 -14 -35 -217 -80 -452 -127 -659 -332 -1410 -556 -2035 -41 -115 -99 -285
-128 -377 -57 -180 -72 -219 -232 -578 -172 -386 -517 -1058 -741 -1440 -590
-1007 -1287 -1925 -2134 -2808 -111 -115 -146 -162 -122 -162 10 0 127 85 238
173 215 171 488 426 919 859 246 248 447 447 447 443 0 -14 -126 -224 -217
-364 -483 -737 -1313 -1600 -2273 -2363 -587 -466 -1341 -974 -1968 -1325
-297 -167 -344 -194 -339 -199 5 -5 207 88 492 226 221 107 267 128 250 112
-52 -50 -300 -209 -473 -304 -34 -19 -59 -38 -55 -43 5 -4 3 -5 -4 -1 -11 6
-113 -38 -113 -49 0 -3 18 4 40 15 22 11 40 18 40 16 0 -19 -759 -419 -1055
-556 -303 -139 -385 -179 -385 -184 0 -3 24 4 53 15 28 11 99 39 157 61 687
261 1551 682 2190 1066 1392 836 2553 1838 3625 3127 873 1049 1576 2203 2143
3520 175 407 460 1170 448 1199 -2 6 -5 5 -5 -2 -2 -24 -171 -482 -265 -715
-274 -681 -604 -1343 -988 -1980 -130 -218 -366 -587 -375 -587 -3 0 3 12 13
28 232 348 558 920 797 1397 685 1373 1137 2772 1381 4280 35 217 48 252 21
59 -86 -615 -244 -1345 -440 -2023 -19 -68 -34 -126 -32 -127 5 -5 87 267 153
506 274 1003 445 2089 504 3200 42 801 7 1700 -100 2578 -17 133 -30 248 -29
255 4 45 88 -526 119 -803 119 -1088 113 -2185 -16 -3265 -14 -115 -28 -232
-31 -260 -3 -27 -3 -48 0 -45 3 3 19 109 36 235 73 547 105 971 121 1570 24
859 -43 1965 -171 2844 -22 150 -38 278 -36 284 3 11 64 -346 97 -573 69 -481
106 -846 159 -1585 9 -123 10 -119 5 70 -24 1069 -243 2449 -565 3567 -38 133
-48 178 -28 128 20 -47 137 -465 192 -680 162 -633 286 -1316 356 -1950 55
-499 72 -786 76 -1305 3 -349 1 -420 -5 -295 -5 90 -11 171 -14 180 -2 8 -4
-152 -5 -356 -6 -1992 -423 -3985 -1225 -5856 -444 -1037 -1026 -2043 -1733
-2996 -63 -85 -109 -151 -103 -147 6 4 73 84 149 179 689 864 1316 1954 1789
3116 244 598 533 1456 697 2067 21 79 40 141 42 139 5 -4 -46 -216 -101 -424
-588 -2203 -1688 -4248 -3206 -5957 -353 -397 -874 -915 -1295 -1286 -1198
-1055 -2597 -1919 -4090 -2526 -1422 -578 -2892 -924 -4440 -1043 -77 -5 -203
-15 -280 -21 -226 -17 -1165 -23 -1455 -10 -603 28 -1109 78 -1679 166 -123
19 -227 33 -229 30 -3 -3 -1 -5 4 -5 6 0 94 -16 196 -35 286 -53 836 -132
1083 -155 447 -42 687 -57 1142 -70 762 -21 1701 34 2460 145 463 68 1273 229
1563 310 48 13 97 22 110 19 20 -5 22 -4 10 6 -12 9 -11 10 7 5 30 -8 79 5 61
16 -8 6 1 7 22 3 28 -4 32 -3 20 6 -12 9 -11 10 7 5 31 -8 79 5 61 17 -9 6 -6
7 9 3 28 -8 75 4 66 18 -3 6 -1 7 6 3 17 -11 73 3 65 16 -4 6 -2 8 3 5 15 -9
74 3 67 14 -3 5 2 6 10 3 30 -11 796 255 1167 406 67 27 124 48 126 46 9 -9
-448 -191 -741 -296 -1217 -434 -2474 -714 -3766 -839 -173 -17 -439 -40 -590
-51 -359 -27 -504 -50 -478 -76 47 -46 823 -65 1278 -31 752 57 1726 226 2525
439 1575 420 3085 1100 4420 1991 1394 931 2618 2084 3627 3417 841 1112 1519
2338 2011 3640 197 521 362 1061 541 1775 168 672 338 1761 390 2495 54 764
55 1543 1 2320 -77 1109 -284 2297 -587 3365 -159 564 -454 1367 -687 1875
-611 1327 -1544 2694 -2656 3890 -708 761 -1590 1518 -2485 2132 -1775 1218
-3736 2023 -5830 2394 -813 144 -1374 202 -2175 224 -369 10 -410 10 -775 -1z
m2490 -309 c52 -5 151 -21 220 -34 69 -14 237 -46 375 -71 393 -72 797 -167
1171 -274 667 -190 1523 -535 2319 -933 1382 -692 2581 -1529 3590 -2510 167
-163 423 -433 476 -503 21 -29 21 -28 -14 4 -20 19 -40 31 -44 28 -8 -9 -134
113 -128 124 3 3 -64 73 -148 155 -1324 1292 -2853 2320 -4497 3022 -1030 440
-2209 779 -3310 952 -397 62 -381 59 -235 54 72 -3 173 -9 225 -14z m8651
-4897 c13 -16 12 -17 -3 -4 -17 13 -22 21 -14 21 2 0 10 -8 17 -17z m217 -248
c377 -439 723 -897 982 -1300 422 -658 771 -1310 1108 -2070 543 -1227 927
-2624 1106 -4020 46 -358 98 -930 95 -1045 -1 -25 -8 29 -15 120 -102 1239
-304 2278 -665 3426 -351 1119 -890 2285 -1547 3349 -40 66 -67 113 -59 105
16 -16 191 -271 246 -357 41 -66 53 -70 15 -6 -48 83 -333 523 -432 668 -302
444 -655 910 -931 1230 -53 61 -87 103 -77 95 11 -8 89 -96 174 -195z m-23687
-3152 c-12 -20 -14 -14 -5 12 4 9 9 14 11 11 3 -2 0 -13 -6 -23z m26588 -1823
c0 -9 -4 -8 -9 5 -5 11 -9 27 -9 35 0 9 4 8 9 -5 5 -11 9 -27 9 -35z m328
-1552 c-3 -8 -6 -5 -6 6 -1 11 2 17 5 13 3 -3 4 -12 1 -19z m10 -65 c-3 -10
-5 -4 -5 12 0 17 2 24 5 18 2 -7 2 -21 0 -30z m-20 -560 c-3 -10 -5 -4 -5 12
0 17 2 24 5 18 2 -7 2 -21 0 -30z m80 -1440 c-2 -21 -4 -6 -4 32 0 39 2 55 4
38 2 -18 2 -50 0 -70z m10 -190 c-2 -16 -4 -3 -4 27 0 30 2 43 4 28 2 -16 2
-40 0 -55z m-690 -665 c-2 -35 -3 -7 -3 62 0 69 1 97 3 63 2 -35 2 -91 0 -125z
m-16 -438 c-15 -347 -64 -912 -105 -1225 -19 -137 -34 -239 -35 -225 -1 24 26
302 69 725 28 282 58 669 67 880 4 99 9 164 11 145 2 -19 -1 -154 -7 -300z
m646 -1022 c-3 -7 -5 -2 -5 12 0 14 2 19 5 13 2 -7 2 -19 0 -25z m-10 -90 c-3
-7 -5 -2 -5 12 0 14 2 19 5 13 2 -7 2 -19 0 -25z m-10 -80 c-3 -7 -5 -2 -5 12
0 14 2 19 5 13 2 -7 2 -19 0 -25z m-10 -80 c-3 -7 -5 -2 -5 12 0 14 2 19 5 13
2 -7 2 -19 0 -25z m-10 -90 c-3 -7 -5 -2 -5 12 0 14 2 19 5 13 2 -7 2 -19 0
-25z m-10 -75 c-3 -10 -5 -4 -5 12 0 17 2 24 5 18 2 -7 2 -21 0 -30z m-10 -80
c-3 -10 -5 -2 -5 17 0 19 2 27 5 18 2 -10 2 -26 0 -35z m-730 -20 c-3 -10 -5
-2 -5 17 0 19 2 27 5 18 2 -10 2 -26 0 -35z m1200 -235 c-3 -8 -6 -5 -6 6 -1
11 2 17 5 13 3 -3 4 -12 1 -19z m-32 -264 c-95 -736 -258 -1372 -558 -2171
-66 -178 -122 -321 -124 -320 -2 2 27 89 63 193 265 764 490 1642 620 2419 29
168 28 100 -1 -121z m-488 -976 c-3 -8 -6 -5 -6 6 -1 11 2 17 5 13 3 -3 4 -12
1 -19z m-208 -1567 c-6 -18 -13 -30 -15 -28 -2 2 1 18 7 36 6 18 13 30 15 28
2 -2 -1 -18 -7 -36z m-38 -98 c-12 -20 -14 -14 -5 12 4 9 9 14 11 11 3 -2 0
-13 -6 -23z m-455 -1094 c-450 -1013 -983 -1927 -1636 -2804 -456 -613 -895
-1123 -1405 -1630 -426 -424 -742 -707 -1195 -1070 -569 -456 -1143 -847
-1775 -1208 -258 -148 -663 -363 -640 -340 6 5 78 47 160 93 438 243 920 546
1169 735 66 49 183 134 260 188 1373 963 2635 2216 3623 3598 564 789 1052
1624 1433 2451 35 76 65 136 67 134 2 -1 -26 -68 -61 -147z m-7706 -7509 c-8
-5 -19 -10 -25 -10 -5 0 -3 5 5 10 8 5 20 10 25 10 6 0 3 -5 -5 -10z m-70 -30
c-8 -5 -19 -10 -25 -10 -5 0 -3 5 5 10 8 5 20 10 25 10 6 0 3 -5 -5 -10z"/>
<path d="M25700 26045 c13 -14 26 -25 28 -25 3 0 -5 11 -18 25 -13 14 -26 25
-28 25 -3 0 5 -11 18 -25z"/>
<path d="M25770 25975 c13 -14 26 -25 28 -25 3 0 -5 11 -18 25 -13 14 -26 25
-28 25 -3 0 5 -11 18 -25z"/>
<path d="M2236 21063 c-6 -14 -5 -15 5 -6 7 7 10 15 7 18 -3 3 -9 -2 -12 -12z"/>
<path d="M28912 18370 c0 -14 2 -19 5 -12 2 6 2 18 0 25 -3 6 -5 1 -5 -13z"/>
<path d="M28922 18320 c0 -14 2 -19 5 -12 2 6 2 18 0 25 -3 6 -5 1 -5 -13z"/>
<path d="M15320 17464 c-19 -2 -82 -9 -140 -15 -308 -33 -649 -170 -888 -356
-370 -289 -598 -697 -678 -1213 -22 -144 -22 -428 0 -584 89 -622 436 -1128
948 -1385 278 -140 555 -202 903 -203 309 -1 577 61 853 197 387 191 680 483
867 860 77 156 118 279 111 330 -14 91 -75 145 -164 145 -90 0 -146 -45 -177
-142 -61 -185 -197 -407 -343 -560 -292 -304 -651 -465 -1082 -484 -293 -14
-566 43 -810 167 -486 247 -781 759 -782 1354 -1 421 111 748 359 1047 115
139 251 245 431 336 189 97 376 146 612 162 478 32 917 -127 1240 -450 164
-164 267 -322 355 -545 54 -135 64 -150 120 -176 94 -43 189 -5 230 93 20 50
19 67 -11 156 -42 124 -136 310 -225 443 -63 94 -116 157 -219 260 -153 154
-235 219 -400 312 -284 162 -579 244 -910 251 -91 3 -181 2 -200 0z"/>
<path d="M23230 17463 c-358 -27 -694 -143 -960 -331 -121 -86 -306 -270 -392
-392 -255 -360 -386 -844 -350 -1297 66 -838 559 -1464 1312 -1667 457 -123
953 -84 1362 107 227 106 397 227 569 403 189 196 319 397 415 646 40 104 44
169 14 229 -28 54 -71 79 -140 79 -93 0 -143 -41 -181 -150 -131 -377 -418
-701 -784 -883 -87 -43 -280 -105 -397 -129 -195 -38 -516 -29 -728 22 -473
113 -844 449 -1010 915 -126 356 -130 757 -10 1118 144 432 474 766 900 910
245 83 600 104 865 51 186 -37 389 -120 542 -220 286 -185 488 -439 618 -776
40 -107 68 -139 134 -159 70 -21 153 11 191 73 31 52 26 122 -16 231 -149 387
-421 721 -755 928 -357 222 -777 324 -1199 292z"/>
<path d="M11721 17444 c-531 -75 -959 -336 -1239 -754 -70 -106 -165 -306
-211 -447 -124 -377 -134 -822 -26 -1199 143 -497 460 -890 890 -1103 447
-221 1005 -258 1492 -99 138 45 178 68 207 117 44 75 8 187 -74 229 -56 29
-83 26 -216 -21 -196 -70 -279 -82 -544 -81 -215 0 -245 2 -350 26 -450 101
-786 360 -988 763 -99 199 -151 412 -159 662 -6 189 4 307 42 468 121 518 526
935 1038 1070 328 86 672 70 987 -46 139 -51 216 -32 267 65 20 38 20 114 -1
153 -24 47 -62 69 -193 113 -216 72 -337 91 -593 95 -163 3 -254 0 -329 -11z"/>
<path d="M19652 17445 c-504 -68 -934 -321 -1214 -715 -142 -200 -263 -495
-308 -750 -31 -176 -38 -489 -16 -653 101 -720 536 -1267 1178 -1482 134 -45
260 -71 430 -90 214 -24 378 -17 603 26 122 23 331 90 384 122 92 56 96 186 8
264 -49 43 -97 49 -172 23 -253 -90 -404 -114 -665 -107 -219 6 -317 23 -492
83 -699 241 -1090 995 -927 1787 30 144 65 245 130 374 74 147 152 255 269
373 113 113 224 193 368 267 373 189 858 215 1257 67 109 -41 167 -44 216 -11
103 69 104 227 3 284 -62 34 -238 90 -374 118 -109 23 -154 27 -350 30 -155 3
-257 0 -328 -10z"/>
<path d="M6250 17379 c-35 -14 -59 -38 -81 -81 -18 -36 -19 -88 -19 -1716 l0
-1679 23 -44 c15 -27 38 -52 63 -66 l39 -23 1012 3 c1009 2 1012 2 1040 23 15
11 38 36 51 54 47 70 18 190 -58 234 -35 21 -47 21 -932 24 l-898 2 -2 1583
-3 1583 -27 41 c-14 22 -42 47 -61 56 -39 19 -108 21 -147 6z"/>
<path d="M6890 17368 c-19 -13 -45 -41 -57 -63 l-23 -40 0 -1351 0 -1351 23
-44 c15 -27 38 -53 63 -66 l39 -23 682 3 c674 2 682 2 710 23 15 11 38 36 51
54 47 70 18 190 -58 234 -34 20 -51 21 -602 24 l-568 3 0 1241 c0 1238 0 1242
-21 1285 -29 61 -70 86 -144 91 -50 3 -66 0 -95 -20z"/>
<path d="M9174 17371 c-23 -10 -52 -34 -65 -52 l-24 -34 0 -417 c0 -405 1
-417 21 -444 35 -47 70 -67 126 -71 67 -5 133 26 163 77 19 34 20 52 20 440 0
388 -1 406 -20 439 -24 42 -95 81 -144 81 -20 0 -54 -9 -77 -19z"/>
<path d="M11835 16776 c-224 -44 -384 -114 -542 -238 -279 -219 -438 -599
-419 -998 28 -569 368 -984 905 -1102 122 -28 350 -29 484 -4 182 35 418 133
472 197 65 78 30 205 -69 250 -58 26 -82 24 -166 -17 -398 -191 -819 -137
-1076 139 -149 159 -215 343 -215 597 0 213 46 372 149 522 68 98 209 211 330
265 222 98 549 85 780 -31 128 -64 185 -65 248 -2 63 63 69 157 14 219 -52 59
-251 146 -430 188 -112 26 -365 34 -465 15z"/>
<path d="M19755 16774 c-370 -66 -672 -287 -829 -607 -182 -373 -165 -860 42
-1211 158 -266 416 -446 742 -519 120 -26 340 -28 475 -3 153 28 326 92 433
160 61 38 88 100 72 164 -6 25 -21 59 -32 75 -23 32 -88 66 -126 67 -13 0 -74
-22 -135 -49 -176 -78 -330 -108 -496 -98 -369 23 -646 247 -738 596 -36 133
-38 352 -5 485 59 237 193 412 402 525 184 99 444 122 670 60 41 -11 119 -41
173 -66 108 -50 157 -56 206 -27 58 34 98 117 86 177 -13 57 -51 95 -147 143
-246 123 -546 172 -793 128z"/>
<path d="M15263 16766 c-234 -45 -439 -152 -609 -321 -89 -87 -207 -250 -220
-302 -27 -106 55 -213 163 -213 58 0 103 30 153 101 107 153 204 243 346 316
113 59 207 84 344 90 132 6 209 -7 335 -56 112 -43 196 -100 295 -201 162
-164 240 -356 240 -590 0 -244 -80 -440 -250 -611 -131 -131 -268 -203 -452
-235 -322 -56 -651 94 -848 388 -57 86 -101 112 -176 106 -125 -11 -192 -132
-133 -243 66 -125 229 -308 352 -395 178 -127 441 -210 666 -210 540 0 1013
371 1147 898 144 567 -140 1162 -666 1393 -155 69 -260 91 -450 95 -110 2
-189 -1 -237 -10z"/>
<path d="M23245 16773 c-132 -16 -309 -75 -418 -139 -187 -109 -362 -286 -446
-451 -57 -113 4 -237 123 -250 76 -9 119 17 179 106 139 208 354 352 583 392
83 14 257 6 338 -16 150 -40 275 -114 391 -230 160 -159 245 -370 245 -604 -1
-482 -412 -880 -876 -847 -277 19 -498 147 -667 386 -67 95 -103 120 -172 120
-94 0 -165 -71 -165 -164 0 -59 35 -124 137 -253 251 -318 662 -479 1068 -419
524 77 928 486 1006 1016 16 113 6 340 -20 446 -113 458 -465 801 -918 893
-96 20 -288 27 -388 14z"/>
<path d="M1102 14225 c0 -16 2 -22 5 -12 2 9 2 23 0 30 -3 6 -5 -1 -5 -18z"/>
<path d="M1111 14168 c-1 -28 57 -506 64 -523 10 -27 1 62 -29 295 -19 140
-34 243 -35 228z"/>
<path d="M1181 13620 c-2 -24 53 -347 56 -330 2 8 -10 89 -26 180 -16 91 -29
158 -30 150z"/>
<path d="M29862 13500 c0 -19 2 -27 5 -17 2 9 2 25 0 35 -3 9 -5 1 -5 -18z"/>
<path d="M1242 13250 c0 -14 2 -19 5 -12 2 6 2 18 0 25 -3 6 -5 1 -5 -13z"/>
<path d="M27935 10018 c-54 -123 -183 -392 -287 -598 -103 -206 -181 -366
-173 -356 20 26 342 667 401 796 91 203 164 373 160 377 -1 2 -47 -97 -101
-219z"/>
<path d="M2200 9820 c97 -248 339 -775 491 -1069 707 -1362 1572 -2544 2649
-3621 908 -908 1825 -1616 2922 -2258 522 -306 850 -474 1748 -899 898 -425
1581 -661 2355 -813 239 -47 450 -81 438 -70 -4 4 -82 24 -173 44 -1235 278
-2454 729 -3565 1319 -1362 723 -2559 1616 -3666 2734 -320 323 -474 489 -718
773 -551 640 -1041 1317 -1467 2023 -64 106 -142 230 -174 277 -58 86 -164
258 -237 385 -83 144 -340 650 -470 925 -129 274 -178 366 -133 250z"/>
<path d="M27425 8990 c-9 -16 -13 -30 -11 -30 3 0 12 14 21 30 9 17 13 30 11
30 -3 0 -12 -13 -21 -30z"/>
<path d="M27380 8910 c-6 -11 -8 -20 -6 -20 3 0 10 9 16 20 6 11 8 20 6 20 -3
0 -10 -9 -16 -20z"/>
<path d="M27290 8750 c-6 -11 -8 -20 -6 -20 3 0 10 9 16 20 6 11 8 20 6 20 -3
0 -10 -9 -16 -20z"/>
<path d="M27245 8673 c-58 -100 -68 -120 -48 -94 24 32 85 141 80 141 -3 0
-17 -21 -32 -47z"/>
<path d="M27144 8503 c-54 -93 -249 -399 -371 -580 -68 -102 -119 -182 -114
-179 30 19 536 806 518 806 -3 0 -18 -21 -33 -47z"/>
<path d="M26610 7685 c-17 -25 -29 -45 -26 -45 3 0 19 20 36 45 17 25 29 45
26 45 -3 0 -19 -20 -36 -45z"/>
<path d="M26563 7618 c-43 -57 -66 -91 -58 -86 12 7 78 98 72 98 -3 0 -9 -6
-14 -12z"/>
<path d="M26479 7503 c-13 -16 -12 -17 4 -4 9 7 17 15 17 17 0 8 -8 3 -21 -13z"/>
<path d="M26449 7463 c-13 -16 -12 -17 4 -4 9 7 17 15 17 17 0 8 -8 3 -21 -13z"/>
<path d="M26364 7348 l-19 -23 23 19 c21 18 27 26 19 26 -2 0 -12 -10 -23 -22z"/>
<path d="M26329 7303 c-13 -16 -12 -17 4 -4 9 7 17 15 17 17 0 8 -8 3 -21 -13z"/>
<path d="M26299 7263 c-13 -16 -12 -17 4 -4 16 13 21 21 13 21 -2 0 -10 -8
-17 -17z"/>
<path d="M26269 7223 c-13 -16 -12 -17 4 -4 9 7 17 15 17 17 0 8 -8 3 -21 -13z"/>
<path d="M26239 7183 c-13 -16 -12 -17 4 -4 16 13 21 21 13 21 -2 0 -10 -8
-17 -17z"/>
<path d="M26143 7063 c-696 -873 -1518 -1683 -2373 -2337 -215 -164 -230 -182
-45 -52 168 117 379 271 625 457 232 174 238 180 490 445 556 585 917 990
1239 1394 68 85 131 163 139 173 8 9 12 17 9 17 -4 0 -41 -44 -84 -97z"/>
<path d="M6636 4665 c17 -16 114 -100 215 -186 1016 -860 2168 -1577 3352
-2083 1144 -489 2395 -824 3642 -976 428 -52 413 -50 395 -41 -8 5 -49 12 -90
15 -439 41 -1337 201 -1800 322 -1297 338 -2447 806 -3586 1460 -706 404
-1394 885 -2039 1423 -103 85 -135 110 -89 66z"/>
<path d="M8610 4026 c0 -3 9 -10 20 -16 11 -6 20 -8 20 -6 0 3 -9 10 -20 16
-11 6 -20 8 -20 6z"/>
<path d="M8660 3996 c0 -3 9 -10 20 -16 11 -6 20 -8 20 -6 0 3 -9 10 -20 16
-11 6 -20 8 -20 6z"/>
<path d="M8765 3933 c51 -51 949 -548 1095 -606 92 -36 174 -67 179 -67 3 0
-168 87 -380 193 -211 106 -474 245 -584 308 -252 146 -323 185 -310 172z"/>
<path d="M8480 3186 c0 -9 415 -254 621 -366 693 -379 1337 -660 2134 -931
333 -113 939 -289 952 -276 2 3 -20 10 -49 17 -280 66 -909 267 -1353 433
-670 251 -1433 615 -2080 995 -99 58 -190 112 -202 120 -13 8 -23 12 -23 8z"/>
<path d="M20445 2864 c-197 -79 -746 -263 -1009 -339 -121 -35 -215 -64 -207
-64 15 -1 306 73 436 110 189 54 608 188 755 241 213 77 200 71 172 76 -19 3
-21 6 -11 18 6 8 10 14 8 14 -2 0 -67 -26 -144 -56z"/>
<path d="M21735 2680 c-134 -66 -612 -289 -663 -310 -18 -7 -31 -15 -28 -17
10 -11 816 366 816 381 0 8 12 13 -125 -54z"/>
<path d="M20917 2308 c-54 -22 -96 -42 -94 -45 5 -4 196 73 206 82 10 11 -19
1 -112 -37z"/>
<path d="M20780 2250 c-8 -5 -10 -10 -5 -10 6 0 17 5 25 10 8 5 11 10 5 10 -5
0 -17 -5 -25 -10z"/>
<path d="M16015 2008 c-192 -4 -412 -6 -489 -4 -76 3 -136 3 -133 0 2 -3 94
-13 203 -23 143 -12 233 -15 319 -10 254 16 437 31 463 39 18 6 20 8 7 8 -11
-1 -177 -5 -370 -10z"/>
<path d="M20110 1799 c-161 -58 -612 -188 -895 -258 -913 -226 -1762 -355
-2728 -414 -209 -12 -1466 -16 -1747 -4 -212 8 -85 -9 205 -27 480 -31 745
-37 1141 -27 1055 29 1930 151 2978 413 430 107 1196 339 1116 337 -8 0 -40
-9 -70 -20z"/>
<path d="M12208 1603 c7 -3 16 -2 19 1 4 3 -2 6 -13 5 -11 0 -14 -3 -6 -6z"/>
<path d="M12248 1593 c7 -3 16 -2 19 1 4 3 -2 6 -13 5 -11 0 -14 -3 -6 -6z"/>
<path d="M12288 1583 c7 -3 16 -2 19 1 4 3 -2 6 -13 5 -11 0 -14 -3 -6 -6z"/>
</g>
</svg>
